<svg width="512" height="512" viewBox="0 0 512 512" fill="none" xmlns="http://www.w3.org/2000/svg">
    <g clip-path="url(#clip0_2_13)">
        <path d="M129.143 0C76.6161 0 34 43 34 96V416C34 469 76.6161 512 129.143 512H414.571H446.286C463.828 512 478 497.7 478 480C478 462.3 463.828 448 446.286 448V384C463.828 384 478 369.7 478 352V32C478 14.3 463.828 0 446.286 0H414.571H129.143ZM129.143 384H382.857V448H129.143C111.601 448 97.4286 433.7 97.4286 416C97.4286 398.3 111.601 384 129.143 384ZM160.857 144C160.857 135.2 167.993 128 176.714 128H367C375.721 128 382.857 135.2 382.857 144C382.857 152.8 375.721 160 367 160H176.714C167.993 160 160.857 152.8 160.857 144ZM176.714 192H367C375.721 192 382.857 199.2 382.857 208C382.857 216.8 375.721 224 367 224H176.714C167.993 224 160.857 216.8 160.857 208C160.857 199.2 167.993 192 176.714 192Z" fill="url(#paint0_linear_2_13)"/>
    </g>
    <defs>
        <linearGradient id="paint0_linear_2_13" x1="256" y1="0" x2="256" y2="512" gradientUnits="userSpaceOnUse">
            <stop stop-color="#2FB387"/>
            <stop offset="1" stop-color="#20D975"/>
        </linearGradient>
        <clipPath id="clip0_2_13">
            <rect width="444" height="512" fill="white" transform="translate(34)"/>
        </clipPath>
    </defs>
</svg>
