<svg width="42" height="48" viewBox="0 0 42 48" fill="none" xmlns="http://www.w3.org/2000/svg">
    <g clip-path="url(#clip0_1_8)">
        <path d="M8.9011 0C3.98695 0 0 4.03125 0 9V39C0 43.9688 3.98695 48 8.9011 48H35.6044H38.5714C40.2126 48 41.5385 46.6594 41.5385 45C41.5385 43.3406 40.2126 42 38.5714 42V36C40.2126 36 41.5385 34.6594 41.5385 33V3C41.5385 1.34062 40.2126 0 38.5714 0H35.6044H8.9011ZM8.9011 36H32.6374V42H8.9011C7.25996 42 5.93407 40.6594 5.93407 39C5.93407 37.3406 7.25996 36 8.9011 36ZM11.8681 13.5C11.8681 12.675 12.5357 12 13.3516 12H31.1538C31.9698 12 32.6374 12.675 32.6374 13.5C32.6374 14.325 31.9698 15 31.1538 15H13.3516C12.5357 15 11.8681 14.325 11.8681 13.5ZM13.3516 18H31.1538C31.9698 18 32.6374 18.675 32.6374 19.5C32.6374 20.325 31.9698 21 31.1538 21H13.3516C12.5357 21 11.8681 20.325 11.8681 19.5C11.8681 18.675 12.5357 18 13.3516 18Z" fill="url(#paint0_linear_1_8)"/>
    </g>
    <defs>
        <linearGradient id="paint0_linear_1_8" x1="20.7692" y1="0" x2="20.7692" y2="48" gradientUnits="userSpaceOnUse">
            <stop stop-color="#2FB387"/>
            <stop offset="1" stop-color="#20D975"/>
        </linearGradient>
        <clipPath id="clip0_1_8">
            <rect width="41.5385" height="48" fill="white"/>
        </clipPath>
    </defs>
</svg>
